<?xml version="1.0" encoding="iso-8859-1"?>
<!-- Generator: Adobe Illustrator 18.0.0, SVG Export Plug-In . SVG Version: 6.00 Build 0)  -->
<!DOCTYPE svg PUBLIC "-//W3C//DTD SVG 1.1//EN" "http://www.w3.org/Graphics/SVG/1.1/DTD/svg11.dtd">
<svg version="1.1" id="Capa_1" xmlns="http://www.w3.org/2000/svg" xmlns:xlink="http://www.w3.org/1999/xlink" x="0px" y="0px"
	 viewBox="0 0 159.705 159.705" style="enable-background:new 0 0 159.705 159.705;" xml:space="preserve">
<g>
	<circle style="fill:#0C9BAA;" cx="79.853" cy="79.852" r="79.853"/>
	<g>
		<path style="fill:#F4E578;" d="M104.464,65.674c-3.073,2.285-6.757,3.848-10.828,4.383c-12.735,1.678-24.422-7.287-26.1-20.023
			c-0.535-4.07,0.021-8.033,1.434-11.596c-11.041,4.252-18.164,15.629-16.55,27.875c1.889,14.352,15.055,24.453,29.407,22.563
			C94.072,87.262,103.219,77.438,104.464,65.674"/>
		<path style="fill:#FFFFFF;" d="M84.335,86.996c-1.076-10.34-9.816-18.402-20.441-18.402c-1.95,0-3.834,0.279-5.622,0.787
			l-0.075-0.025c-3.656,1.055-6.898,3.115-9.41,5.84c-1.51-0.59-3.152-0.904-4.87-0.904c-6.91,0-12.596,5.229-13.335,11.939
			c-6.037,0.49-10.785,5.426-10.785,11.59c0,6.492,5.263,11.635,11.752,11.635c0.32,0,22.86,0,37.104,0c6.497,0,11.269,0,11.416,0
			c6.489,0,11.752-5.143,11.752-11.631C91.819,92.84,88.715,88.703,84.335,86.996"/>
		<path style="fill:#ECDE74;" d="M63.803,68.594c-1.919,0.01-3.774,0.285-5.535,0.785l0.004,0.002
			C60.031,68.881,61.884,68.604,63.803,68.594 M63.894,68.594c-0.028,0-0.058,0-0.086,0C63.836,68.594,63.865,68.594,63.894,68.594
			c8.35,0,15.535,4.979,18.752,12.129l0,0C79.429,73.572,72.243,68.594,63.894,68.594"/>
		<path style="fill:#F7F7F7;" d="M63.894,68.594c-0.028,0-0.058,0-0.086,0c-0.002,0-0.003,0-0.005,0
			c-1.919,0.01-3.771,0.287-5.531,0.787l-0.004-0.002c-0.024,0.008-0.048,0.014-0.071,0.021c7.584,2.191,13.362,8.637,14.591,16.584
			c2.459-2.846,5.933-4.787,9.858-5.262C79.429,73.572,72.243,68.594,63.894,68.594"/>
		<path style="fill:#F4F4F4;" d="M131.255,95.301c-1.244-11.957-11.349-21.277-23.634-21.277c-2.255,0-4.433,0.322-6.499,0.91
			l-0.089-0.029c-4.228,1.219-7.975,3.602-10.879,6.752c-1.746-0.682-3.645-1.047-5.631-1.047c-7.989,0-14.563,6.045-15.417,13.805
			c-6.98,0.568-12.47,6.273-12.47,13.402c0,7.504,6.083,13.449,13.587,13.449c0.371,0,26.431,0,42.898,0c7.512,0,13.029,0,13.198,0
			c7.504,0,13.588-5.943,13.588-13.447C139.908,102.055,136.318,97.275,131.255,95.301"/>
		<path style="fill:#F7F7F7;" d="M107.516,74.023c-1.981,0.008-3.905,0.266-5.745,0.732l-0.001,0.002
			C103.609,74.291,105.532,74.031,107.516,74.023 M107.567,74.023c-0.015,0-0.03,0-0.046,0
			C107.537,74.023,107.553,74.023,107.567,74.023 M107.621,74.023L107.621,74.023L107.621,74.023c12.285,0,22.39,9.32,23.634,21.277
			c5.053,1.971,8.639,6.734,8.653,12.483c0-0.012,0-0.021,0-0.031c0-5.764-3.59-10.477-8.653-12.451
			C130.011,83.344,119.906,74.023,107.621,74.023"/>
		<path style="fill:#ECDE74;" d="M101.771,74.756c-0.219,0.055-0.438,0.113-0.653,0.176l0.005,0.002
			c0.214-0.061,0.43-0.119,0.647-0.176L101.771,74.756"/>
		<path style="fill:#ECECEC;" d="M107.621,74.023L107.621,74.023c-0.017,0-0.035,0-0.054,0c-0.015,0-0.03,0-0.046,0
			c0,0-0.004,0-0.006,0c-1.983,0.008-3.906,0.268-5.746,0.734c-0.218,0.057-0.434,0.115-0.647,0.176l-0.005-0.002
			c-0.028,0.008-0.056,0.016-0.084,0.023c9.138,2.643,16.01,10.623,17.022,20.346c5.064,1.975,8.653,6.688,8.653,12.451
			c0,7.502-6.084,13.379-13.587,13.379c7.512,0,13.029,0,13.198,0c7.493,0,13.57-5.859,13.588-13.348
			c-0.015-5.748-3.601-10.512-8.653-12.483C130.011,83.344,119.906,74.023,107.621,74.023"/>
	</g>
</g>
<g>
</g>
<g>
</g>
<g>
</g>
<g>
</g>
<g>
</g>
<g>
</g>
<g>
</g>
<g>
</g>
<g>
</g>
<g>
</g>
<g>
</g>
<g>
</g>
<g>
</g>
<g>
</g>
<g>
</g>
</svg>
