<?xml version="1.0" encoding="iso-8859-1"?>
<!-- Generator: Adobe Illustrator 18.0.0, SVG Export Plug-In . SVG Version: 6.00 Build 0)  -->
<!DOCTYPE svg PUBLIC "-//W3C//DTD SVG 1.1//EN" "http://www.w3.org/Graphics/SVG/1.1/DTD/svg11.dtd">
<svg version="1.1" id="Capa_1" xmlns="http://www.w3.org/2000/svg" xmlns:xlink="http://www.w3.org/1999/xlink" x="0px" y="0px"
	 viewBox="0 0 159.705 159.705" style="enable-background:new 0 0 159.705 159.705;" xml:space="preserve">
<g>
	<circle style="fill:#A3DCE2;" cx="79.853" cy="79.852" r="79.853"/>
	<g>
		<path style="fill:#F0F0F0;" d="M120.438,67.047c-1.53-14.711-13.965-26.182-29.081-26.182c-2.813,0-5.531,0.406-8.106,1.148
			c11.244,3.251,19.699,13.07,20.943,25.033c6.231,2.43,10.649,8.23,10.649,15.322c0,9.233-7.486,16.463-16.719,16.463
			c9.243,0,16.033,0,16.241,0c9.233,0,16.719-7.229,16.719-16.463C131.085,75.277,126.667,69.477,120.438,67.047z"/>
		<path style="fill:#FFFFFF;" d="M114.844,82.369c0-7.092-4.418-13.021-10.649-15.451c-1.244-11.962-9.699-21.717-20.943-24.969
			c-5.203,1.5-9.813,4.434-13.389,8.309c-2.148-0.838-4.483-1.287-6.928-1.287c-9.83,0-17.919,7.438-18.971,16.986
			c-8.589,0.7-15.344,7.637-15.344,16.408c0,9.232,7.485,16.467,16.719,16.467c0.456,0,32.523,0,52.786,0
			C107.357,98.832,114.844,91.603,114.844,82.369z"/>
		<path style="fill:#FFFFFF;" d="M112.049,114.717c0,3.05-2.473,5.521-5.521,5.521c-3.05,0-5.522-2.472-5.522-5.521
			c0-3.05,5.522-8.621,5.522-8.621S112.049,111.667,112.049,114.717"/>
		<path style="fill:#F7F7F7;" d="M106.527,106.096v14.143c3.049,0,5.521-2.472,5.521-5.521
			C112.049,111.667,106.527,106.096,106.527,106.096"/>
		<path style="fill:#FFFFFF;" d="M86.975,114.717c0,3.05-2.473,5.521-5.521,5.521c-3.05,0-5.521-2.472-5.521-5.521
			c0-3.05,5.521-8.621,5.521-8.621S86.975,111.667,86.975,114.717"/>
		<path style="fill:#F7F7F7;" d="M81.453,106.096v14.143c3.049,0,5.521-2.472,5.521-5.521
			C86.975,111.667,81.453,106.096,81.453,106.096"/>
		<path style="fill:#FFFFFF;" d="M61.9,114.717c0,3.05-2.473,5.521-5.521,5.521c-3.05,0-5.521-2.472-5.521-5.521
			c0-3.05,5.521-8.621,5.521-8.621S61.9,111.667,61.9,114.717"/>
		<path style="fill:#F7F7F7;" d="M56.379,106.096v14.143c3.049,0,5.521-2.472,5.521-5.521
			C61.9,111.667,56.379,106.096,56.379,106.096"/>
	</g>
</g>
<g>
</g>
<g>
</g>
<g>
</g>
<g>
</g>
<g>
</g>
<g>
</g>
<g>
</g>
<g>
</g>
<g>
</g>
<g>
</g>
<g>
</g>
<g>
</g>
<g>
</g>
<g>
</g>
<g>
</g>
</svg>
