<?xml version="1.0" encoding="iso-8859-1"?>
<!-- Generator: Adobe Illustrator 18.0.0, SVG Export Plug-In . SVG Version: 6.00 Build 0)  -->
<!DOCTYPE svg PUBLIC "-//W3C//DTD SVG 1.1//EN" "http://www.w3.org/Graphics/SVG/1.1/DTD/svg11.dtd">
<svg version="1.1" id="Capa_1" xmlns="http://www.w3.org/2000/svg" xmlns:xlink="http://www.w3.org/1999/xlink" x="0px" y="0px"
	 viewBox="0 0 159.705 159.705" style="enable-background:new 0 0 159.705 159.705;" xml:space="preserve">
<g>
	<circle style="fill:#A3DCE2;" cx="79.853" cy="79.852" r="79.853"/>
	<g>
		<path style="fill:#F0F0F0;" d="M119.438,62.126c-1.53-14.71-13.965-26.181-29.081-26.181c-2.813,0-5.531,0.406-8.105,1.148
			c11.244,3.251,19.699,13.07,20.943,25.033c6.231,2.431,10.649,8.231,10.649,15.322c0,9.234-7.486,16.463-16.719,16.463
			c9.243,0,16.033,0,16.241,0c9.233,0,16.719-7.229,16.719-16.463C130.086,70.356,125.668,64.556,119.438,62.126z"/>
		<path style="fill:#FFFFFF;" d="M113.845,77.448c0-7.092-4.418-13.02-10.649-15.451c-1.244-11.961-9.699-21.717-20.943-24.968
			c-5.203,1.5-9.813,4.433-13.389,8.308c-2.148-0.838-4.483-1.287-6.928-1.287c-9.83,0-17.919,7.438-18.971,16.987
			c-8.589,0.7-15.344,7.637-15.344,16.407c0,9.233,7.485,16.467,16.719,16.467c0.456,0,32.523,0,52.786,0
			C106.358,93.911,113.845,86.682,113.845,77.448z"/>
		<path style="fill:#FFFFFF;" d="M111.05,109.796c0,3.05-2.473,5.521-5.521,5.521c-3.05,0-5.522-2.472-5.522-5.521
			c0-3.05,5.522-8.621,5.522-8.621S111.05,106.746,111.05,109.796"/>
		<path style="fill:#F7F7F7;" d="M105.528,101.175v14.143c3.049,0,5.521-2.472,5.521-5.521
			C111.05,106.746,105.528,101.175,105.528,101.175"/>
		<path style="fill:#FFFFFF;" d="M85.976,109.796c0,3.05-2.473,5.521-5.521,5.521c-3.05,0-5.522-2.472-5.522-5.521
			c0-3.05,5.522-8.621,5.522-8.621S85.976,106.746,85.976,109.796"/>
		<path style="fill:#F7F7F7;" d="M80.454,101.175v14.143c3.049,0,5.521-2.472,5.521-5.521
			C85.976,106.746,80.454,101.175,80.454,101.175"/>
		<path style="fill:#FFFFFF;" d="M60.901,109.796c0,3.05-2.473,5.521-5.521,5.521c-3.05,0-5.521-2.472-5.521-5.521
			c0-3.05,5.521-8.621,5.521-8.621S60.901,106.746,60.901,109.796"/>
		<path style="fill:#F7F7F7;" d="M55.38,101.175v14.143c3.049,0,5.521-2.472,5.521-5.521
			C60.901,106.746,55.38,101.175,55.38,101.175"/>
		<path style="fill:#FFFFFF;" d="M98.513,126.718c0,3.05-2.473,5.522-5.521,5.522c-3.05,0-5.522-2.472-5.522-5.522
			s5.522-8.621,5.522-8.621S98.513,123.668,98.513,126.718"/>
		<path style="fill:#F7F7F7;" d="M92.991,118.097v14.143c3.049,0,5.521-2.472,5.521-5.522S92.991,118.097,92.991,118.097"/>
		<path style="fill:#FFFFFF;" d="M73.438,126.718c0,3.05-2.473,5.522-5.521,5.522c-3.05,0-5.521-2.472-5.521-5.522
			s5.521-8.621,5.521-8.621S73.438,123.668,73.438,126.718"/>
		<path style="fill:#F7F7F7;" d="M67.917,118.097v14.143c3.049,0,5.521-2.472,5.521-5.522S67.917,118.097,67.917,118.097"/>
	</g>
</g>
<g>
</g>
<g>
</g>
<g>
</g>
<g>
</g>
<g>
</g>
<g>
</g>
<g>
</g>
<g>
</g>
<g>
</g>
<g>
</g>
<g>
</g>
<g>
</g>
<g>
</g>
<g>
</g>
<g>
</g>
</svg>
