<?xml version="1.0" encoding="utf-8"?>
<!-- Generator: Adobe Illustrator 19.0.0, SVG Export Plug-In . SVG Version: 6.00 Build 0)  -->
<svg version="1.1" id="weather-2" xmlns="http://www.w3.org/2000/svg" xmlns:xlink="http://www.w3.org/1999/xlink" x="0px" y="0px"
	 viewBox="-225 317.3 159.7 159.7" style="enable-background:new -225 317.3 159.7 159.7;" xml:space="preserve">
<style type="text/css">
	.st0{fill:#A3DCE2;}
	.st1{fill:#F0F0F0;}
	.st2{fill:#FFFFFF;}
</style>
<g>
	<circle class="st0" cx="-145.1" cy="397.1" r="79.9"/>
	<g>
		<g>
			<path class="st1" d="M-107.2,380c-1.5-14.7-14-26.2-29.1-26.2c-2.8,0-5.5,0.4-8.1,1.1c11.2,3.3,19.7,13.1,20.9,25
				c6.2,2.4,10.6,8.2,10.6,15.3c0,9.2-7.5,16.5-16.7,16.5c9.2,0,16,0,16.2,0c9.2,0,16.7-7.2,16.7-16.5
				C-96.5,388.3-101,382.5-107.2,380z"/>
			<path class="st2" d="M-112.8,395.4c0-7.1-4.4-13-10.6-15.5c-1.2-12-9.7-21.7-20.9-25c-5.2,1.5-9.8,4.4-13.4,8.3
				c-2.1-0.8-4.5-1.3-6.9-1.3c-9.8,0-17.9,7.4-19,17c-8.6,0.7-15.3,7.6-15.3,16.4c0,9.2,7.5,16.5,16.7,16.5c0.5,0,32.5,0,52.8,0
				C-120.3,411.8-112.8,404.6-112.8,395.4z"/>
		</g>
		<g>
			<g>
				<path class="st2" d="M-147.1,442.8c-1.4,0-2.5-1.1-2.5-2.5v-20c0-1.4,1.1-2.5,2.5-2.5s2.5,1.1,2.5,2.5v20
					C-144.6,441.7-145.8,442.8-147.1,442.8z"/>
				<path class="st2" d="M-137.6,433.3h-20c-1.4,0-2.5-1.1-2.5-2.5s1.1-2.5,2.5-2.5h20c1.4,0,2.5,1.1,2.5,2.5
					S-136.3,433.3-137.6,433.3z"/>
				<path class="st2" d="M-154.5,440.2c-0.6,0-1.3-0.2-1.8-0.7c-1-1-1-2.6,0-3.5l14.5-14.5c1-1,2.6-1,3.5,0s1,2.6,0,3.5l-14.5,14.5
					C-153.2,440-153.8,440.2-154.5,440.2z"/>
				<path class="st2" d="M-140.3,440.2c-0.6,0-1.3-0.2-1.8-0.7l-14.5-14.5c-1-1-1-2.6,0-3.5c1-1,2.6-1,3.5,0l14.5,14.5
					c1,1,1,2.6,0,3.5C-139.1,440-139.7,440.2-140.3,440.2z"/>
			</g>
			<g>
				<path class="st2" d="M-117.1,442.8c-1.4,0-2.5-1.1-2.5-2.5v-20c0-1.4,1.1-2.5,2.5-2.5s2.5,1.1,2.5,2.5v20
					C-114.6,441.7-115.8,442.8-117.1,442.8z"/>
				<path class="st2" d="M-107.6,433.3h-20c-1.4,0-2.5-1.1-2.5-2.5s1.1-2.5,2.5-2.5h20c1.4,0,2.5,1.1,2.5,2.5
					S-106.3,433.3-107.6,433.3z"/>
				<path class="st2" d="M-124.5,440.2c-0.6,0-1.3-0.2-1.8-0.7c-1-1-1-2.6,0-3.5l14.5-14.5c1-1,2.6-1,3.5,0s1,2.6,0,3.5l-14.5,14.5
					C-123.2,440-123.8,440.2-124.5,440.2z"/>
				<path class="st2" d="M-110.3,440.2c-0.6,0-1.3-0.2-1.8-0.7l-14.5-14.5c-1-1-1-2.6,0-3.5s2.6-1,3.5,0l14.5,14.5c1,1,1,2.6,0,3.5
					C-109.1,440-109.7,440.2-110.3,440.2z"/>
			</g>
			<g>
				<path class="st2" d="M-177.1,442.8c-1.4,0-2.5-1.1-2.5-2.5v-20c0-1.4,1.1-2.5,2.5-2.5s2.5,1.1,2.5,2.5v20
					C-174.6,441.7-175.8,442.8-177.1,442.8z"/>
				<path class="st2" d="M-167.6,433.3h-20c-1.4,0-2.5-1.1-2.5-2.5s1.1-2.5,2.5-2.5h20c1.4,0,2.5,1.1,2.5,2.5
					S-166.3,433.3-167.6,433.3z"/>
				<path class="st2" d="M-184.5,440.2c-0.6,0-1.3-0.2-1.8-0.7c-1-1-1-2.6,0-3.5l14.5-14.5c1-1,2.6-1,3.5,0c1,1,1,2.6,0,3.5
					l-14.5,14.5C-183.2,440-183.8,440.2-184.5,440.2z"/>
				<path class="st2" d="M-170.3,440.2c-0.6,0-1.3-0.2-1.8-0.7l-14.5-14.5c-1-1-1-2.6,0-3.5c1-1,2.6-1,3.5,0l14.5,14.5
					c1,1,1,2.6,0,3.5C-169.1,440-169.7,440.2-170.3,440.2z"/>
			</g>
		</g>
	</g>
</g>
</svg>
