<?xml version="1.0" encoding="iso-8859-1"?>
<!-- Generator: Adobe Illustrator 18.0.0, SVG Export Plug-In . SVG Version: 6.00 Build 0)  -->
<!DOCTYPE svg PUBLIC "-//W3C//DTD SVG 1.1//EN" "http://www.w3.org/Graphics/SVG/1.1/DTD/svg11.dtd">
<svg version="1.1" id="Capa_1" xmlns="http://www.w3.org/2000/svg" xmlns:xlink="http://www.w3.org/1999/xlink" x="0px" y="0px"
	 viewBox="0 0 159.705 159.705" style="enable-background:new 0 0 159.705 159.705;" xml:space="preserve">
<g>
	<circle style="fill:#A3DCE2;" cx="79.852" cy="79.852" r="79.852"/>
	<g>
		<path style="fill:#F0F0F0;" d="M120.253,59.004c-1.53-14.711-13.965-26.182-29.081-26.182c-2.813,0-5.531,0.406-8.105,1.148
			c11.244,3.251,19.699,13.07,20.943,25.033c6.231,2.43,10.649,8.23,10.649,15.322c0,9.233-7.486,16.463-16.719,16.463
			c9.243,0,16.033,0,16.241,0c9.233,0,16.719-7.229,16.719-16.463C130.9,67.235,126.482,61.434,120.253,59.004z"/>
		<path style="fill:#FFFFFF;" d="M114.659,74.327c0-7.092-4.418-13.021-10.649-15.451c-1.244-11.962-9.699-21.717-20.943-24.969
			c-5.203,1.5-9.813,4.434-13.389,8.309c-2.148-0.838-4.483-1.287-6.928-1.287c-9.83,0-17.919,7.438-18.971,16.986
			c-8.589,0.7-15.344,7.637-15.344,16.408c0,9.232,7.485,16.467,16.719,16.467c0.456,0,32.523,0,52.786,0
			C107.173,90.789,114.659,83.56,114.659,74.327z"/>
	</g>
	<g>
		<polygon style="fill:#F6D100;" points="68.633,139.09 98.475,114.932 91.843,114.932 85.396,114.932 94.054,96.932 87.422,96.932 
			70.843,96.932 60.896,124.932 66.422,124.932 73.054,124.932 70.852,131.984 		"/>
		<g>
			<polygon style="fill:#EAC300;" points="98.475,114.932 91.843,114.932 70.852,131.879 68.633,139.168 			"/>
			<polygon style="fill:#EAC300;" points="85.396,114.932 94.054,96.932 87.422,96.932 78.765,114.932 			"/>
		</g>
	</g>
</g>
<g>
</g>
<g>
</g>
<g>
</g>
<g>
</g>
<g>
</g>
<g>
</g>
<g>
</g>
<g>
</g>
<g>
</g>
<g>
</g>
<g>
</g>
<g>
</g>
<g>
</g>
<g>
</g>
<g>
</g>
</svg>
