<?xml version="1.0" encoding="iso-8859-1"?>
<!-- Generator: Adobe Illustrator 19.0.0, SVG Export Plug-In . SVG Version: 6.00 Build 0)  -->
<svg version="1.1" id="Capa_1" xmlns="http://www.w3.org/2000/svg" xmlns:xlink="http://www.w3.org/1999/xlink" x="0px" y="0px"
	 viewBox="0 0 512 512" style="enable-background:new 0 0 512 512;" xml:space="preserve">
<circle style="fill:#FFFFFF;" cx="256" cy="296.08" r="112.23"/>
<path style="fill:#FFC850;" d="M280.048,320.129c-56.186,0-102.592-41.334-110.803-95.226
	c-15.911,19.37-25.471,44.154-25.471,71.177c0,61.981,50.245,112.226,112.226,112.226s112.226-50.245,112.226-112.226
	c0-5.795-0.576-11.442-1.423-17C346.221,304.138,315.006,320.129,280.048,320.129z"/>
<g>
	<path style="fill:#ABFFDB;" d="M338.757,336.161c-41.407,0-41.407,16.032-82.814,16.032c-41.42,0-41.42-16.032-82.841-16.032
		c-41.406,0-41.406,16.032-82.812,16.032c-41.395,0-41.395-16.032-82.791-16.032l12.998,14.855
		c27.399,31.313,66.981,49.274,108.59,49.274h253.825c41.608,0,81.191-17.961,108.59-49.274l12.998-14.855
		c-41.435,0-41.435,16.032-82.871,16.032C380.193,352.194,380.193,336.161,338.757,336.161z"/>
	<path style="fill:#ABFFDB;" d="M421.629,352.194c-41.435,0-41.435-16.032-82.871-16.032c-41.407,0-41.407,16.032-82.814,16.032
		c-41.42,0-41.42-16.032-82.841-16.032c-41.406,0-41.406,16.032-82.812,16.032c-41.395,0-41.395-16.032-82.791-16.032l41.38,40.075
		c10.354,4.01,20.703,8.022,41.411,8.022c41.406,0,41.406-16.032,82.812-16.032c41.42,0,41.42,16.032,82.841,16.032
		c41.408,0,41.408-16.032,82.814-16.032c41.436,0,41.436,16.032,82.871,16.032c20.716,0,31.074-4.007,41.432-8.015l41.439-40.082
		C463.065,336.161,463.065,352.194,421.629,352.194z"/>
</g>
<g>
	<path style="fill:#FFFFFF;" d="M116.863,143.774c-11.272,0-21.446,4.436-29.107,11.54c-4.239-1.871-8.904-2.951-13.836-2.951
		c-18.974,0-34.355,15.381-34.355,34.355h120.242C159.806,163.001,140.58,143.774,116.863,143.774z"/>
	<path style="fill:#FFFFFF;" d="M339.024,261.154c11.272,0,21.446,4.436,29.108,11.54c4.239-1.871,8.904-2.951,13.836-2.951
		c18.974,0,34.355,15.381,34.355,34.355H296.081C296.081,280.38,315.307,261.154,339.024,261.154z"/>
</g>
<path style="fill:#ABFFDB;" d="M382.913,400.29c28.122,0,55.217-8.373,78.353-23.36c-9.795,3.765-20.112,7.327-39.636,7.327
	c-41.435,0-41.435-16.032-82.871-16.032c-41.407,0-41.407,16.032-82.814,16.032c-41.42,0-41.42-16.032-82.841-16.032
	c-41.406,0-41.406,16.032-82.812,16.032c-19.44,0-29.743-3.538-39.498-7.289c23.123,14.963,50.197,23.321,78.295,23.321h70.799
	l56.109,16.032l48.102-16.032h78.814V400.29z"/>
<path style="fill:#474D54;" d="M504.5,328.661c-22.118,0-33.315,4.332-44.142,8.521c-9.982,3.862-19.412,7.511-38.729,7.511
	c-19.318,0-28.747-3.648-38.73-7.511c-10.827-4.189-22.023-8.521-44.142-8.521c-22.105,0-33.294,4.333-44.115,8.522
	c-9.975,3.862-19.397,7.51-38.699,7.51c-19.31,0-28.735-3.648-38.713-7.51c-10.824-4.19-22.016-8.522-44.127-8.522
	c-22.104,0-33.293,4.333-44.114,8.522c-9.975,3.862-19.396,7.51-38.698,7.51c-19.296,0-28.715-3.648-38.687-7.51
	c-10.818-4.19-22.004-8.522-44.104-8.522c-4.142,0-7.5,3.358-7.5,7.5s3.358,7.5,7.5,7.5c19.296,0,28.714,3.648,38.687,7.51
	c10.818,4.19,22.004,8.522,44.104,8.522c22.104,0,33.293-4.333,44.114-8.522c9.975-3.862,19.396-7.51,38.698-7.51
	c19.309,0,28.734,3.648,38.712,7.51c10.824,4.19,22.017,8.522,44.128,8.522c22.105,0,33.294-4.333,44.115-8.522
	c9.975-3.862,19.397-7.51,38.699-7.51c19.317,0,28.747,3.648,38.729,7.511c10.828,4.189,22.024,8.521,44.143,8.521
	s33.314-4.332,44.142-8.521c9.982-3.862,19.412-7.511,38.729-7.511c4.142,0,7.5-3.358,7.5-7.5S508.642,328.661,504.5,328.661z"/>
<path style="fill:#48C397;" d="M461.722,368.72l-1.367,0.528c-4.515,1.747-8.78,3.397-13.855,4.715
	c-4.009,1.042-6.415,5.136-5.374,9.145c0.877,3.377,3.92,5.616,7.254,5.616c0.624,0,1.259-0.079,1.891-0.243
	c5.912-1.536,10.784-3.421,15.497-5.245l1.349-0.521c3.865-1.49,5.79-5.831,4.301-9.695
	C469.928,369.155,465.585,367.23,461.722,368.72z"/>
<path style="fill:#FFFFFF;" d="M416.593,376.671c-16.001-0.577-24.595-3.902-33.694-7.423c-10.828-4.19-22.024-8.522-44.142-8.522
	c-22.105,0-33.294,4.333-44.115,8.522c-9.975,3.862-19.397,7.51-38.699,7.51c-19.31,0-28.734-3.648-38.713-7.511
	c-10.824-4.189-22.016-8.522-44.127-8.522c-22.104,0-33.293,4.333-44.114,8.522c-9.077,3.515-17.651,6.834-33.587,7.419
	c-4.14,0.152-7.372,3.631-7.22,7.77c0.152,4.14,3.632,7.363,7.77,7.22c18.454-0.677,28.622-4.614,38.454-8.421
	c9.975-3.862,19.396-7.51,38.698-7.51c19.309,0,28.734,3.648,38.712,7.511c10.824,4.19,22.017,8.522,44.128,8.522
	c22.105,0,33.294-4.332,44.115-8.522c9.975-3.862,19.397-7.51,38.699-7.51c19.317,0,28.747,3.648,38.729,7.511
	c9.855,3.813,20.045,7.756,38.566,8.424c4.113,0.147,7.616-3.085,7.765-7.225C423.967,380.296,420.732,376.819,416.593,376.671z"/>
<g>
	<path style="fill:#48C397;" d="M338.757,392.79c-22.105,0-33.294,4.332-44.115,8.522c-9.975,3.862-19.397,7.51-38.699,7.51
		c-19.31,0-28.734-3.648-38.713-7.51c-10.824-4.19-22.016-8.522-44.127-8.522c-4.142,0-7.5,3.358-7.5,7.5s3.358,7.5,7.5,7.5
		c19.309,0,28.734,3.648,38.713,7.51c10.824,4.19,22.016,8.522,44.128,8.522c22.105,0,33.294-4.333,44.115-8.522
		c9.975-3.862,19.397-7.51,38.699-7.51c4.142,0,7.5-3.358,7.5-7.5S342.899,392.79,338.757,392.79z"/>
	<path style="fill:#48C397;" d="M65.511,373.981c-5.105-1.323-9.384-2.981-13.914-4.736c-3.862-1.496-8.207,0.422-9.703,4.284
		c-1.496,3.863,0.422,8.207,4.284,9.703c4.73,1.832,9.621,3.727,15.569,5.269c0.631,0.164,1.264,0.242,1.887,0.242
		c3.335,0,6.379-2.242,7.255-5.62C71.929,379.113,69.521,375.021,65.511,373.981z"/>
</g>
<path style="fill:#474D54;" d="M136.575,304.625c0.279,3.952,3.572,6.972,7.474,6.972c0.178,0,0.357-0.006,0.536-0.019
	c4.132-0.292,7.245-3.878,6.953-8.01c-0.175-2.472-0.263-4.991-0.263-7.488c0-57.746,46.98-104.726,104.726-104.726
	c34.231,0,66.372,16.789,85.975,44.911c2.369,3.397,7.043,4.232,10.442,1.864c3.398-2.369,4.232-7.044,1.864-10.442
	c-22.407-32.143-59.147-51.333-98.281-51.333c-66.017,0-119.726,53.709-119.726,119.726
	C136.274,298.929,136.376,301.804,136.575,304.625z"/>
<g>
	<path style="fill:#FF8031;" d="M55.597,288.581c-4.142,0-7.5,3.358-7.5,7.5s3.358,7.5,7.5,7.5h48.097c4.142,0,7.5-3.358,7.5-7.5
		s-3.358-7.5-7.5-7.5H55.597z"/>
	<path style="fill:#FF8031;" d="M256,151.274c4.142,0,7.5-3.358,7.5-7.5V95.677c0-4.142-3.358-7.5-7.5-7.5s-7.5,3.358-7.5,7.5
		v48.097C248.5,147.917,251.858,151.274,256,151.274z"/>
	<path style="fill:#FF8031;" d="M363.697,195.884c1.919,0,3.839-0.732,5.303-2.197l34.01-34.01c2.929-2.929,2.929-7.678,0-10.606
		c-2.929-2.929-7.678-2.929-10.607,0l-34.01,34.01c-2.929,2.929-2.929,7.678,0,10.606
		C359.858,195.151,361.777,195.884,363.697,195.884z"/>
	<path style="fill:#FF8031;" d="M190.786,158.238c1.196,2.888,3.989,4.632,6.932,4.632c0.956,0,1.929-0.184,2.867-0.573
		c3.827-1.586,5.644-5.973,4.059-9.799l-6.135-14.812c-1.585-3.827-5.972-5.643-9.799-4.059c-3.827,1.585-5.644,5.973-4.059,9.799
		L190.786,158.238z"/>
	<path style="fill:#FF8031;" d="M389.784,240.665c1.196,2.888,3.989,4.632,6.932,4.632c0.957,0,1.929-0.184,2.867-0.573
		l14.812-6.135c3.827-1.585,5.644-5.973,4.059-9.799c-1.585-3.827-5.972-5.643-9.799-4.059l-14.812,6.135
		C390.016,232.451,388.199,236.839,389.784,240.665z"/>
	<path style="fill:#FF8031;" d="M311.415,162.297c0.938,0.389,1.911,0.573,2.867,0.573c2.943,0,5.736-1.744,6.932-4.632
		l6.135-14.811c1.585-3.827-0.232-8.214-4.059-9.799c-3.826-1.585-8.214,0.232-9.799,4.059l-6.135,14.812
		C305.771,156.324,307.588,160.711,311.415,162.297z"/>
	<path style="fill:#FF8031;" d="M115.284,245.297c2.943,0,5.736-1.744,6.932-4.632c1.585-3.827-0.232-8.214-4.059-9.799
		l-14.812-6.135c-3.828-1.586-8.214,0.232-9.799,4.059c-1.585,3.827,0.232,8.214,4.059,9.799l14.812,6.135
		C113.356,245.113,114.328,245.297,115.284,245.297z"/>
</g>
<g>
	<path style="fill:#474D54;" d="M39.564,194.218h120.242c4.142,0,7.5-3.358,7.5-7.5c0-27.814-22.629-50.443-50.444-50.443
		c-11.078,0-21.775,3.692-30.589,10.481c-4.015-1.257-8.153-1.893-12.354-1.893c-23.079,0-41.855,18.776-41.855,41.855
		C32.064,190.86,35.422,194.218,39.564,194.218z M73.919,159.863c3.695,0,7.331,0.778,10.807,2.313
		c2.739,1.21,5.934,0.674,8.129-1.362c6.634-6.152,15.161-9.54,24.008-9.54c16.971,0,31.194,11.99,34.646,27.943H48.13
		C51.383,168.048,61.713,159.863,73.919,159.863z"/>
	<path style="fill:#474D54;" d="M381.968,262.242c-4.201,0-8.339,0.635-12.354,1.893c-8.815-6.789-19.512-10.481-30.589-10.481
		c-27.815,0-50.444,22.629-50.444,50.443c0,4.142,3.358,7.5,7.5,7.5h120.242c4.142,0,7.5-3.358,7.5-7.5
		C423.823,281.018,405.047,262.242,381.968,262.242z M304.379,296.597c3.451-15.953,17.675-27.943,34.646-27.943
		c8.847,0,17.373,3.388,24.008,9.54c2.196,2.035,5.389,2.569,8.128,1.361c3.476-1.535,7.112-2.313,10.807-2.313
		c12.206,0,22.536,8.185,25.789,19.355L304.379,296.597L304.379,296.597z"/>
</g>
<g>
</g>
<g>
</g>
<g>
</g>
<g>
</g>
<g>
</g>
<g>
</g>
<g>
</g>
<g>
</g>
<g>
</g>
<g>
</g>
<g>
</g>
<g>
</g>
<g>
</g>
<g>
</g>
<g>
</g>
</svg>
